<mxfile host="app.diagrams.net" agent="Mozilla/5.0 (Macintosh; Intel Mac OS X 10_15_7) AppleWebKit/605.1.15 (KHTML, like Gecko) Version/18.1.1 Safari/605.1.15" version="24.9.0">
  <diagram name="Page-1" id="Df26OQ5QuCIQnarttRfd">
    <mxGraphModel dx="938" dy="560" grid="1" gridSize="10" guides="1" tooltips="1" connect="1" arrows="1" fold="1" page="1" pageScale="1" pageWidth="827" pageHeight="1169" math="0" shadow="0">
      <root>
        <mxCell id="0" />
        <mxCell id="1" parent="0" />
        <mxCell id="yMWU_w-8V6lH48wwNe0x-1" value="user" style="shape=umlActor;verticalLabelPosition=bottom;verticalAlign=top;html=1;outlineConnect=0;" vertex="1" parent="1">
          <mxGeometry x="10" y="290" width="30" height="60" as="geometry" />
        </mxCell>
        <mxCell id="yMWU_w-8V6lH48wwNe0x-2" value="exchange rate api" style="shape=umlActor;verticalLabelPosition=bottom;verticalAlign=top;html=1;outlineConnect=0;" vertex="1" parent="1">
          <mxGeometry x="590" y="200" width="30" height="60" as="geometry" />
        </mxCell>
        <mxCell id="yMWU_w-8V6lH48wwNe0x-3" value="currency converter" style="rounded=0;whiteSpace=wrap;html=1;" vertex="1" parent="1">
          <mxGeometry x="100" y="10" width="120" height="60" as="geometry" />
        </mxCell>
        <mxCell id="yMWU_w-8V6lH48wwNe0x-4" value="enter conversion details" style="ellipse;whiteSpace=wrap;html=1;" vertex="1" parent="1">
          <mxGeometry x="210" y="60" width="120" height="80" as="geometry" />
        </mxCell>
        <mxCell id="yMWU_w-8V6lH48wwNe0x-5" value="fetch exchange rates" style="ellipse;whiteSpace=wrap;html=1;" vertex="1" parent="1">
          <mxGeometry x="210" y="190" width="120" height="80" as="geometry" />
        </mxCell>
        <mxCell id="yMWU_w-8V6lH48wwNe0x-6" value="perform conversion" style="ellipse;whiteSpace=wrap;html=1;" vertex="1" parent="1">
          <mxGeometry x="210" y="320" width="120" height="80" as="geometry" />
        </mxCell>
        <mxCell id="yMWU_w-8V6lH48wwNe0x-7" value="display result" style="ellipse;whiteSpace=wrap;html=1;" vertex="1" parent="1">
          <mxGeometry x="220" y="440" width="120" height="80" as="geometry" />
        </mxCell>
        <mxCell id="yMWU_w-8V6lH48wwNe0x-8" value="repeat conversion" style="ellipse;whiteSpace=wrap;html=1;" vertex="1" parent="1">
          <mxGeometry x="220" y="560" width="120" height="80" as="geometry" />
        </mxCell>
        <mxCell id="yMWU_w-8V6lH48wwNe0x-12" value="" style="endArrow=open;endFill=1;endSize=12;html=1;rounded=0;entryX=-0.008;entryY=0.425;entryDx=0;entryDy=0;entryPerimeter=0;exitX=0.5;exitY=0.5;exitDx=0;exitDy=0;exitPerimeter=0;" edge="1" parent="1" source="yMWU_w-8V6lH48wwNe0x-1" target="yMWU_w-8V6lH48wwNe0x-8">
          <mxGeometry width="160" relative="1" as="geometry">
            <mxPoint x="30" y="319.5" as="sourcePoint" />
            <mxPoint x="110" y="340" as="targetPoint" />
          </mxGeometry>
        </mxCell>
        <mxCell id="yMWU_w-8V6lH48wwNe0x-13" value="" style="endArrow=open;endFill=1;endSize=12;html=1;rounded=0;entryX=0;entryY=0.375;entryDx=0;entryDy=0;entryPerimeter=0;exitX=0.5;exitY=0.5;exitDx=0;exitDy=0;exitPerimeter=0;" edge="1" parent="1" source="yMWU_w-8V6lH48wwNe0x-1" target="yMWU_w-8V6lH48wwNe0x-7">
          <mxGeometry width="160" relative="1" as="geometry">
            <mxPoint x="30" y="320" as="sourcePoint" />
            <mxPoint x="180" y="319.5" as="targetPoint" />
          </mxGeometry>
        </mxCell>
        <mxCell id="yMWU_w-8V6lH48wwNe0x-14" value="" style="endArrow=open;endFill=1;endSize=12;html=1;rounded=0;entryX=0.033;entryY=0.713;entryDx=0;entryDy=0;entryPerimeter=0;exitX=0.5;exitY=0.5;exitDx=0;exitDy=0;exitPerimeter=0;" edge="1" parent="1" source="yMWU_w-8V6lH48wwNe0x-1" target="yMWU_w-8V6lH48wwNe0x-4">
          <mxGeometry width="160" relative="1" as="geometry">
            <mxPoint x="20" y="320" as="sourcePoint" />
            <mxPoint x="180" y="319.5" as="targetPoint" />
          </mxGeometry>
        </mxCell>
        <mxCell id="yMWU_w-8V6lH48wwNe0x-15" value="" style="endArrow=block;startArrow=block;endFill=1;startFill=1;html=1;rounded=0;exitX=1;exitY=0.5;exitDx=0;exitDy=0;entryX=0.5;entryY=0.5;entryDx=0;entryDy=0;entryPerimeter=0;" edge="1" parent="1" source="yMWU_w-8V6lH48wwNe0x-5" target="yMWU_w-8V6lH48wwNe0x-2">
          <mxGeometry width="160" relative="1" as="geometry">
            <mxPoint x="340" y="340" as="sourcePoint" />
            <mxPoint x="500" y="340" as="targetPoint" />
          </mxGeometry>
        </mxCell>
        <mxCell id="yMWU_w-8V6lH48wwNe0x-17" value="" style="endArrow=open;endFill=1;endSize=12;html=1;rounded=0;exitX=0.5;exitY=1;exitDx=0;exitDy=0;" edge="1" parent="1" source="yMWU_w-8V6lH48wwNe0x-4" target="yMWU_w-8V6lH48wwNe0x-5">
          <mxGeometry width="160" relative="1" as="geometry">
            <mxPoint x="300" y="130" as="sourcePoint" />
            <mxPoint x="500" y="340" as="targetPoint" />
          </mxGeometry>
        </mxCell>
        <mxCell id="yMWU_w-8V6lH48wwNe0x-18" value="" style="endArrow=open;endFill=1;endSize=12;html=1;rounded=0;exitX=0.5;exitY=1;exitDx=0;exitDy=0;entryX=0.5;entryY=0;entryDx=0;entryDy=0;" edge="1" parent="1" source="yMWU_w-8V6lH48wwNe0x-5" target="yMWU_w-8V6lH48wwNe0x-6">
          <mxGeometry width="160" relative="1" as="geometry">
            <mxPoint x="340" y="340" as="sourcePoint" />
            <mxPoint x="500" y="340" as="targetPoint" />
          </mxGeometry>
        </mxCell>
        <mxCell id="yMWU_w-8V6lH48wwNe0x-19" value="" style="endArrow=open;endFill=1;endSize=12;html=1;rounded=0;exitX=0.5;exitY=1;exitDx=0;exitDy=0;entryX=0.442;entryY=-0.012;entryDx=0;entryDy=0;entryPerimeter=0;" edge="1" parent="1" source="yMWU_w-8V6lH48wwNe0x-6" target="yMWU_w-8V6lH48wwNe0x-7">
          <mxGeometry width="160" relative="1" as="geometry">
            <mxPoint x="340" y="340" as="sourcePoint" />
            <mxPoint x="260" y="440" as="targetPoint" />
          </mxGeometry>
        </mxCell>
        <mxCell id="yMWU_w-8V6lH48wwNe0x-20" value="" style="endArrow=open;endFill=1;endSize=12;html=1;rounded=0;exitX=0.5;exitY=1;exitDx=0;exitDy=0;" edge="1" parent="1" source="yMWU_w-8V6lH48wwNe0x-7" target="yMWU_w-8V6lH48wwNe0x-8">
          <mxGeometry width="160" relative="1" as="geometry">
            <mxPoint x="340" y="340" as="sourcePoint" />
            <mxPoint x="500" y="340" as="targetPoint" />
          </mxGeometry>
        </mxCell>
      </root>
    </mxGraphModel>
  </diagram>
</mxfile>
